grf
version=1
nRows=25
nColumns=46
inDegrees=yes
endheader
time	ground_force_1_vx	ground_force_1_vy	ground_force_1_vz	ground_force_1_px	ground_force_1_py	ground_force_1_pz	ground_moment_1_mx	ground_moment_1_my	ground_moment_1_mz	ground_force_2_vx	ground_force_2_vy	ground_force_2_vz	ground_force_2_px	ground_force_2_py	ground_force_2_pz	ground_moment_2_mx	ground_moment_2_my	ground_moment_2_mz	ground_force_3_vx	ground_force_3_vy	ground_force_3_vz	ground_force_3_px	ground_force_3_py	ground_force_3_pz	ground_moment_3_mx	ground_moment_3_my	ground_moment_3_mz	ground_force_4_vx	ground_force_4_vy	ground_force_4_vz	ground_force_4_px	ground_force_4_py	ground_force_4_pz	ground_moment_4_mx	ground_moment_4_my	ground_moment_4_mz	ground_force_5_vx	ground_force_5_vy	ground_force_5_vz	ground_force_5_px	ground_force_5_py	ground_force_5_pz	ground_moment_5_mx	ground_moment_5_my	ground_moment_5_mz
3.660000	0.000000	0.000000	0.000000	0.000000	0.000000	0.000000	0.000000	0.000000	0.000000	0.000000	0.000000	0.000000	0.000000	0.000000	0.000000	0.000000	0.000000	0.000000	0.000000	0.000000	0.000000	0.000000	0.000000	0.000000	0.000000	0.000000	0.000000	6.875969	548.322664	-22.680611	0.196068	0.000000	-1.079681	0.000000	4.178256	0.000000	0.459843	498.218351	12.799997	0.214497	0.000000	-1.392520	-0.000000	-4.861066	-0.000000
3.660500	0.000000	0.000000	0.000000	0.000000	0.000000	0.000000	0.000000	0.000000	0.000000	0.000000	0.000000	0.000000	0.000000	0.000000	0.000000	0.000000	0.000000	0.000000	0.000000	0.000000	0.000000	0.000000	0.000000	0.000000	0.000000	0.000000	0.000000	6.848770	548.488009	-22.706945	0.196070	0.000000	-1.079677	0.000000	4.179812	0.000000	0.468401	498.178311	12.784074	0.214504	0.000000	-1.392519	-0.000000	-4.861322	-0.000000
3.661000	0.000000	0.000000	0.000000	0.000000	0.000000	0.000000	0.000000	0.000000	0.000000	0.000000	0.000000	0.000000	0.000000	0.000000	0.000000	0.000000	0.000000	0.000000	0.000000	0.000000	0.000000	0.000000	0.000000	0.000000	0.000000	0.000000	0.000000	6.821300	548.655688	-22.733101	0.196072	0.000000	-1.079674	0.000000	4.181328	0.000000	0.476991	498.137779	12.768034	0.214511	0.000000	-1.392519	-0.000000	-4.861542	-0.000000
3.661500	0.000000	0.000000	0.000000	0.000000	0.000000	0.000000	0.000000	0.000000	0.000000	0.000000	0.000000	0.000000	0.000000	0.000000	0.000000	0.000000	0.000000	0.000000	0.000000	0.000000	0.000000	0.000000	0.000000	0.000000	0.000000	0.000000	0.000000	6.793578	548.825574	-22.759054	0.196074	0.000000	-1.079670	0.000000	4.182808	0.000000	0.485588	498.096720	12.751854	0.214517	0.000000	-1.392518	-0.000000	-4.861720	-0.000000
3.662000	0.000000	0.000000	0.000000	0.000000	0.000000	0.000000	0.000000	0.000000	0.000000	0.000000	0.000000	0.000000	0.000000	0.000000	0.000000	0.000000	0.000000	0.000000	0.000000	0.000000	0.000000	0.000000	0.000000	0.000000	0.000000	0.000000	0.000000	6.765621	548.997534	-22.784778	0.196075	0.000000	-1.079666	0.000000	4.184252	0.000000	0.494170	498.055109	12.735516	0.214524	0.000000	-1.392518	-0.000000	-4.861849	-0.000000
3.662500	0.000000	0.000000	0.000000	0.000000	0.000000	0.000000	0.000000	0.000000	0.000000	0.000000	0.000000	0.000000	0.000000	0.000000	0.000000	0.000000	0.000000	0.000000	0.000000	0.000000	0.000000	0.000000	0.000000	0.000000	0.000000	0.000000	0.000000	6.737448	549.171449	-22.810250	0.196077	0.000000	-1.079663	0.000000	4.185664	0.000000	0.502721	498.012936	12.719004	0.214530	0.000000	-1.392517	-0.000000	-4.861923	-0.000000
3.663000	0.000000	0.000000	0.000000	0.000000	0.000000	0.000000	0.000000	0.000000	0.000000	0.000000	0.000000	0.000000	0.000000	0.000000	0.000000	0.000000	0.000000	0.000000	0.000000	0.000000	0.000000	0.000000	0.000000	0.000000	0.000000	0.000000	0.000000	6.709070	549.347216	-22.835447	0.196078	0.000000	-1.079659	0.000000	4.187046	0.000000	0.511228	497.970208	12.702299	0.214536	0.000000	-1.392517	-0.000000	-4.861933	-0.000000
3.663500	0.000000	0.000000	0.000000	0.000000	0.000000	0.000000	0.000000	0.000000	0.000000	0.000000	0.000000	0.000000	0.000000	0.000000	0.000000	0.000000	0.000000	0.000000	0.000000	0.000000	0.000000	0.000000	0.000000	0.000000	0.000000	0.000000	0.000000	6.680493	549.524743	-22.860355	0.196079	0.000000	-1.079656	0.000000	4.188397	0.000000	0.519685	497.926946	12.685382	0.214542	0.000000	-1.392517	-0.000000	-4.861875	-0.000000
3.664000	0.000000	0.000000	0.000000	0.000000	0.000000	0.000000	0.000000	0.000000	0.000000	0.000000	0.000000	0.000000	0.000000	0.000000	0.000000	0.000000	0.000000	0.000000	0.000000	0.000000	0.000000	0.000000	0.000000	0.000000	0.000000	0.000000	0.000000	6.651716	549.703945	-22.884962	0.196080	0.000000	-1.079652	0.000000	4.189721	0.000000	0.528089	497.883186	12.668234	0.214548	0.000000	-1.392517	-0.000000	-4.861741	-0.000000
3.664500	0.000000	0.000000	0.000000	0.000000	0.000000	0.000000	0.000000	0.000000	0.000000	0.000000	0.000000	0.000000	0.000000	0.000000	0.000000	0.000000	0.000000	0.000000	0.000000	0.000000	0.000000	0.000000	0.000000	0.000000	0.000000	0.000000	0.000000	6.622739	549.884739	-22.909261	0.196080	0.000000	-1.079649	0.000000	4.191019	0.000000	0.536439	497.838979	12.650843	0.214554	0.000000	-1.392517	-0.000000	-4.861530	-0.000000
3.665000	0.000000	0.000000	0.000000	0.000000	0.000000	0.000000	0.000000	0.000000	0.000000	0.000000	0.000000	0.000000	0.000000	0.000000	0.000000	0.000000	0.000000	0.000000	0.000000	0.000000	0.000000	0.000000	0.000000	0.000000	0.000000	0.000000	0.000000	6.593560	550.067055	-22.933252	0.196081	0.000000	-1.079645	0.000000	4.192295	0.000000	0.544738	497.794386	12.633200	0.214560	0.000000	-1.392517	-0.000000	-4.861237	-0.000000
3.665500	0.000000	0.000000	0.000000	0.000000	0.000000	0.000000	0.000000	0.000000	0.000000	0.000000	0.000000	0.000000	0.000000	0.000000	0.000000	0.000000	0.000000	0.000000	0.000000	0.000000	0.000000	0.000000	0.000000	0.000000	0.000000	0.000000	0.000000	6.564178	550.250825	-22.956936	0.196081	0.000000	-1.079642	0.000000	4.193554	0.000000	0.552989	497.749473	12.615307	0.214565	0.000000	-1.392517	-0.000000	-4.860861	-0.000000
3.666000	0.000000	0.000000	0.000000	0.000000	0.000000	0.000000	0.000000	0.000000	0.000000	0.000000	0.000000	0.000000	0.000000	0.000000	0.000000	0.000000	0.000000	0.000000	0.000000	0.000000	0.000000	0.000000	0.000000	0.000000	0.000000	0.000000	0.000000	6.534594	550.435979	-22.980313	0.196081	0.000000	-1.079639	0.000000	4.194801	0.000000	0.561197	497.704300	12.597168	0.214570	0.000000	-1.392517	-0.000000	-4.860402	-0.000000
3.666500	0.000000	0.000000	0.000000	0.000000	0.000000	0.000000	0.000000	0.000000	0.000000	0.000000	0.000000	0.000000	0.000000	0.000000	0.000000	0.000000	0.000000	0.000000	0.000000	0.000000	0.000000	0.000000	0.000000	0.000000	0.000000	0.000000	0.000000	6.504809	550.622441	-23.003380	0.196082	0.000000	-1.079636	0.000000	4.196042	0.000000	0.569374	497.658916	12.578789	0.214575	0.000000	-1.392517	-0.000000	-4.859857	-0.000000
3.667000	0.000000	0.000000	0.000000	0.000000	0.000000	0.000000	0.000000	0.000000	0.000000	0.000000	0.000000	0.000000	0.000000	0.000000	0.000000	0.000000	0.000000	0.000000	0.000000	0.000000	0.000000	0.000000	0.000000	0.000000	0.000000	0.000000	0.000000	6.474827	550.810128	-23.026125	0.196082	0.000000	-1.079633	0.000000	4.197282	0.000000	0.577539	497.613367	12.560177	0.214580	0.000000	-1.392517	-0.000000	-4.859227	-0.000000
3.667500	0.000000	0.000000	0.000000	0.000000	0.000000	0.000000	0.000000	0.000000	0.000000	0.000000	0.000000	0.000000	0.000000	0.000000	0.000000	0.000000	0.000000	0.000000	0.000000	0.000000	0.000000	0.000000	0.000000	0.000000	0.000000	0.000000	0.000000	6.444647	550.998961	-23.048526	0.196081	0.000000	-1.079630	0.000000	4.198525	0.000000	0.585716	497.567685	12.541342	0.214585	0.000000	-1.392517	-0.000000	-4.858512	-0.000000
3.668000	0.000000	0.000000	0.000000	0.000000	0.000000	0.000000	0.000000	0.000000	0.000000	0.000000	0.000000	0.000000	0.000000	0.000000	0.000000	0.000000	0.000000	0.000000	0.000000	0.000000	0.000000	0.000000	0.000000	0.000000	0.000000	0.000000	0.000000	6.414273	551.188861	-23.070555	0.196081	0.000000	-1.079627	0.000000	4.199774	0.000000	0.593931	497.521889	12.522291	0.214590	0.000000	-1.392518	-0.000000	-4.857711	-0.000000
3.668500	0.000000	0.000000	0.000000	0.000000	0.000000	0.000000	0.000000	0.000000	0.000000	0.000000	0.000000	0.000000	0.000000	0.000000	0.000000	0.000000	0.000000	0.000000	0.000000	0.000000	0.000000	0.000000	0.000000	0.000000	0.000000	0.000000	0.000000	6.383712	551.379743	-23.092184	0.196081	0.000000	-1.079624	0.000000	4.201032	0.000000	0.602212	497.475980	12.503033	0.214594	0.000000	-1.392518	-0.000000	-4.856823	-0.000000
3.669000	0.000000	0.000000	0.000000	0.000000	0.000000	0.000000	0.000000	0.000000	0.000000	0.000000	0.000000	0.000000	0.000000	0.000000	0.000000	0.000000	0.000000	0.000000	0.000000	0.000000	0.000000	0.000000	0.000000	0.000000	0.000000	0.000000	0.000000	6.352975	551.571517	-23.113380	0.196080	0.000000	-1.079621	0.000000	4.202302	0.000000	0.610584	497.429947	12.483575	0.214598	0.000000	-1.392518	-0.000000	-4.855847	-0.000000
3.669500	0.000000	0.000000	0.000000	0.000000	0.000000	0.000000	0.000000	0.000000	0.000000	0.000000	0.000000	0.000000	0.000000	0.000000	0.000000	0.000000	0.000000	0.000000	0.000000	0.000000	0.000000	0.000000	0.000000	0.000000	0.000000	0.000000	0.000000	6.322080	551.764088	-23.134114	0.196080	0.000000	-1.079618	0.000000	4.203588	0.000000	0.619074	497.383769	12.463921	0.214602	0.000000	-1.392519	-0.000000	-4.854783	-0.000000
3.670000	0.000000	0.000000	0.000000	0.000000	0.000000	0.000000	0.000000	0.000000	0.000000	0.000000	0.000000	0.000000	0.000000	0.000000	0.000000	0.000000	0.000000	0.000000	0.000000	0.000000	0.000000	0.000000	0.000000	0.000000	0.000000	0.000000	0.000000	6.291045	551.957359	-23.154361	0.196079	0.000000	-1.079615	0.000000	4.204896	0.000000	0.627707	497.337428	12.444075	0.214606	0.000000	-1.392519	-0.000000	-4.853631	-0.000000
3.670500	0.000000	0.000000	0.000000	0.000000	0.000000	0.000000	0.000000	0.000000	0.000000	0.000000	0.000000	0.000000	0.000000	0.000000	0.000000	0.000000	0.000000	0.000000	0.000000	0.000000	0.000000	0.000000	0.000000	0.000000	0.000000	0.000000	0.000000	6.259889	552.151221	-23.174094	0.196078	0.000000	-1.079613	0.000000	4.206231	0.000000	0.636514	497.290903	12.424039	0.214609	0.000000	-1.392519	-0.000000	-4.852395	-0.000000
3.671000	0.000000	0.000000	0.000000	0.000000	0.000000	0.000000	0.000000	0.000000	0.000000	0.000000	0.000000	0.000000	0.000000	0.000000	0.000000	0.000000	0.000000	0.000000	0.000000	0.000000	0.000000	0.000000	0.000000	0.000000	0.000000	0.000000	0.000000	6.228630	552.345544	-23.193292	0.196077	0.000000	-1.079610	0.000000	4.207601	0.000000	0.645527	497.244180	12.403815	0.214612	0.000000	-1.392520	-0.000000	-4.851082	-0.000000
3.671500	0.000000	0.000000	0.000000	0.000000	0.000000	0.000000	0.000000	0.000000	0.000000	0.000000	0.000000	0.000000	0.000000	0.000000	0.000000	0.000000	0.000000	0.000000	0.000000	0.000000	0.000000	0.000000	0.000000	0.000000	0.000000	0.000000	0.000000	6.197284	552.540176	-23.211937	0.196076	0.000000	-1.079608	0.000000	4.209011	0.000000	0.654778	497.197245	12.383404	0.214616	0.000000	-1.392520	-0.000000	-4.849701	-0.000000
3.672000	0.000000	0.000000	0.000000	0.000000	0.000000	0.000000	0.000000	0.000000	0.000000	0.000000	0.000000	0.000000	0.000000	0.000000	0.000000	0.000000	0.000000	0.000000	0.000000	0.000000	0.000000	0.000000	0.000000	0.000000	0.000000	0.000000	0.000000	6.165865	552.734960	-23.230016	0.196074	0.000000	-1.079605	0.000000	4.210467	0.000000	0.664294	497.150087	12.362802	0.214618	0.000000	-1.392520	-0.000000	-4.848259	-0.000000
